@startuml
title
 Diagram Test4
end title

class CompanyInfo
{
    +string Name
}
class OrderItem4Related1
{
    +int SomeMethodWithNestedMethods()
}
abstract class OrderItem4Related3
{
    +{abstract} int CalculateSum(int a,int b)
}
package Orders <<Cloud>> {
    class Order4
    {
    }
    class OrderItem4
    {
        +{static} void SomeStaticMethod()
    }
}

Order4 --{ OrderItem4:Items
OrderItem4 o--> OrderItem4Related1:"DoSomething1(a)"
OrderItem4 o--> OrderItem4Related3:"DoSomething2()"
@enduml
